<svg xmlns="http://www.w3.org/2000/svg" width="32" height="32"><path d="M13 0v4h1V0h-1zm6.403 2.578-3.109 2.516.628.778 3.109-2.519-.628-.775zm2.003 6.735-3.897-.9-.225.975 3.897.9.225-.975zm-15.59.974 3.897-.9-.225-.975-3.897.9.225.975zm1.153-6.934 3.109 2.519.628-.778-3.109-2.519-.628.778zM19.497 31c4.144 0 7.5-3.584 7.5-7.5 0 0 0 2.313 0 0v-5.997a1.5 1.5 0 1 0-3 0V18h-1v-2.494a1.5 1.5 0 1 0-3 0V17h-1v-2.494a1.5 1.5 0 1 0-3 0V18h-1V7.506a1.5 1.5 0 1 0-3 0V18.8c-2.059-2.2-4.769-4.622-5.878-3.503-1.087 1.094 1.716 4.106 5.625 10.688 1.766 2.966 3.997 5.016 7.753 5.016zM28 23.5a8.5 8.5 0 0 1-8.5 8.5c-3.113 0-6.397-1.453-8.659-5.572-3.263-5.947-7.438-9.844-5.45-11.831 1.422-1.422 3.653-.056 5.609 1.772V7.51a2.499 2.499 0 1 1 5 0v4.991a2.496 2.496 0 0 1 1.5-.497c1.081 0 1.994.678 2.347 1.628a2.482 2.482 0 0 1 1.653-.628c1.391 0 2.5 1.119 2.5 2.497v.012a2.496 2.496 0 0 1 1.5-.497c1.391 0 2.5 1.119 2.5 2.5V23.5z"/></svg>